<svg xmlns="http://www.w3.org/2000/svg" viewBox="0 0 192 192" width="192" height="192">
  <defs>
    <linearGradient id="bg" x1="0%" y1="0%" x2="100%" y2="100%">
      <stop offset="0%" style="stop-color:#1a1a3e"/>
      <stop offset="100%" style="stop-color:#0f0f23"/>
    </linearGradient>
    <linearGradient id="accent" x1="0%" y1="0%" x2="100%" y2="100%">
      <stop offset="0%" style="stop-color:#8b5cf6"/>
      <stop offset="100%" style="stop-color:#06b6d4"/>
    </linearGradient>
  </defs>
  <rect width="192" height="192" rx="32" fill="url(#bg)"/>
  <!-- Rocket body -->
  <g transform="translate(96,96)">
    <!-- Glow -->
    <ellipse cx="0" cy="10" rx="22" ry="30" fill="#8b5cf6" opacity="0.2"/>
    <!-- Rocket -->
    <path d="M0-50 C-4-50 -14-30 -14 5 L-14 20 L-22 32 L-10 28 L-10 35 C-10 40 10 40 10 35 L10 28 L22 32 L14 20 L14 5 C14-30 4-50 0-50Z" fill="white"/>
    <!-- Window -->
    <circle cx="0" cy="-10" r="8" fill="url(#accent)"/>
    <!-- Flames -->
    <path d="M-6 35 Q0 55 6 35" fill="#f59e0b" opacity="0.9"/>
    <path d="M-3 35 Q0 48 3 35" fill="#ef4444" opacity="0.8"/>
  </g>
</svg>
